<svg version="1" xmlns="http://www.w3.org/2000/svg" width="933.333" height="933.333" viewBox="0 0 700.000000 700.000000"><path d="M328 .6c-1.9.2-8.4.9-14.5 1.4-48.9 4.7-99.7 21.6-143.9 48.2C108.9 86.7 58.8 143.4 30 208.4-.2 276.6-7.8 353.7 8.6 426.8c11.2 50.3 35.9 101.4 69 142.7 11.3 14.2 38.8 41.7 52.9 52.9 36.9 29.4 79.2 51.4 123.5 64.1 81.4 23.4 170.3 16 246-20.6 38.9-18.9 66.7-38.6 97.1-68.9 28.3-28.3 48.1-55.5 65.4-90 18.9-37.8 29.6-73.3 35.1-116.5 2.2-17.4 2.5-60.5.6-77-6.7-56.2-23.5-104.2-52.6-150.5-27.7-44.2-69.9-85.6-114.4-112.3C487.6 24.6 441.9 8.8 391 2.4 380 1 335.4-.3 328 .6zm35.8 280.9c4.6.9 11.5 3.4 17.2 6.2 7.9 3.8 10.9 6 18.1 13.2 7.2 7.2 9.4 10.2 13.2 18.1 10.2 20.9 10.2 41.1 0 62-3.8 7.9-6 10.9-13.2 18.1-7.2 7.2-10.2 9.4-18.1 13.2-28.8 14-59.8 8.4-81.8-14.7-26.3-27.7-25.2-71.1 2.4-97.8 16.9-16.2 39.3-22.8 62.2-18.3zm-152.4 87c.4 3.5 1.7 10.6 3 15.7 6.7 26.3 19.3 47.7 39.4 66.9 19.3 18.5 41.6 30.3 68.2 36 15.1 3.3 40.9 3.3 56 0 27.8-6 50.6-18.4 70.6-38.5 21.9-22 35.7-49.1 39.6-77.8l1.2-8.8h186.9l-.6 11.2c-2.3 39.9-14.5 84.5-33.7 122.8-63.3 126.2-201.8 198.2-340.3 177-81.3-12.5-154.9-54.8-206.2-118.5-26.6-33.1-48.9-76.4-59.9-116.2-6.3-22.5-10.2-45.1-11.3-64.6l-.6-11.7h187l.7 6.5z"/></svg>