<?xml version="1.0" encoding="UTF-8"?>
<svg enable-background="new 0 0 204.8 204.8" version="1.1" viewBox="0 0 204.8 204.8" xml:space="preserve" xmlns="http://www.w3.org/2000/svg">
<path d="M201.387,102.4c0-54.67-44.317-98.987-98.987-98.987S3.413,47.73,3.413,102.4H201.387z" fill="#EE5281"/>
<path d="M204.8,105.813H0V102.4C0,45.937,45.937,0,102.4,0s102.4,45.937,102.4,102.4V105.813z M6.886,98.987h191.027  c-1.802-51.127-43.955-92.16-95.514-92.16S8.689,47.86,6.886,98.987z"/>
<path d="M201.387,102.4c0,54.67-44.317,98.987-98.987,98.987S3.413,157.07,3.413,102.4H201.387z" fill="#fff"/>
<path d="m102.4 204.8c-56.463 0-102.4-45.937-102.4-102.4 0-1.884 1.529-3.413 3.413-3.413h197.97c1.884 0 3.413 1.529 3.413 3.413 1e-3 56.463-45.936 102.4-102.4 102.4zm-95.514-98.987c1.802 51.127 43.955 92.16 95.514 92.16s93.711-41.033 95.514-92.16h-191.03z"/>
<circle cx="102.4" cy="102.4" r="37.547" fill="#777"/>
<path d="m102.4 143.36c-22.586 0-40.96-18.374-40.96-40.96s18.374-40.96 40.96-40.96 40.96 18.374 40.96 40.96-18.374 40.96-40.96 40.96zm0-75.093c-18.821 0-34.133 15.312-34.133 34.133s15.312 34.133 34.133 34.133 34.133-15.312 34.133-34.133-15.312-34.133-34.133-34.133z"/>
<circle cx="102.4" cy="102.4" r="23.893" fill="#fff"/>
<path d="m102.4 129.71c-15.056 0-27.307-12.25-27.307-27.307s12.25-27.307 27.307-27.307 27.307 12.25 27.307 27.307-12.251 27.307-27.307 27.307zm0-47.787c-11.293 0-20.48 9.187-20.48 20.48s9.187 20.48 20.48 20.48 20.48-9.187 20.48-20.48-9.187-20.48-20.48-20.48z"/>
</svg>
